<svg id="Capa_1" enable-background="new 0 0 512 512" height="512" viewBox="0 0 512 512" width="512" xmlns="http://www.w3.org/2000/svg"><g><path d="m376 27.98c-40.781 0-87.231 18.56-120 47.168-32.769-28.609-79.219-47.168-120-47.168-79.092 0-135.7 61.657-136 150l46.368 120c39.736 50.002 99.181 96.161 170.349 157.852l29.473 24.532c2.794 2.43 6.297 3.655 9.811 3.657 3.494.002 6.998-1.205 9.818-3.657 16.377-14.18 34.948-26.51 49.698-39.151 66.735-57.173 117.032-100.715 150.071-143.232l46.412-120c-.3-88.344-56.908-150.001-136-150.001z" fill="#ff6c6c"/><path d="m315.517 441.212c66.735-57.173 117.032-100.715 150.071-143.232l46.412-120c-.3-88.343-56.908-150-136-150-40.781 0-87.231 18.56-120 47.168v408.872c3.494.002 6.998-1.205 9.818-3.657 16.377-14.179 34.948-26.509 49.699-39.151z" fill="#e63950"/><path d="m335.775 213.121-79.775-65.141h-45c-25.693 0-49.614 10.84-66.738 30h-144.262c0 46.003 17.01 83.06 46.368 120h97.894c17.124 19.16 41.045 30 66.738 30h45 45c25.082 0 51.295-12.739 66.738-30z" fill="#fdc"/><path d="m367.738 297.98-31.963-84.858-79.775-65.142v180h45c25.082 0 51.295-12.739 66.738-30z" fill="#ffccb3"/><path d="m512 177.98h-144.262c-17.124-19.16-41.045-30-66.738-30h-45l-65.098 65.171c-7.343 7.343-5.164 19.702 4.146 24.141 19.708 9.397 43.378 6.279 60.952-6.442 2.452-1.774 5.169-3.124 7.339-5.292l12.437-12.437 91.963 84.858h97.85c28.714-36.95 46.411-73.413 46.411-119.999z" fill="#a34f3e"/><path d="m275.775 213.121 91.963 84.858h97.85c28.715-36.951 46.412-73.414 46.412-120h-144.262c-17.124-19.16-41.045-30-66.738-30h-45v82.87c2.452-1.774 5.169-3.124 7.339-5.292z" fill="#873f2e"/></g></svg>