<svg id="Layer_1" enable-background="new 0 0 512 512" height="512" viewBox="0 0 512 512" width="512" xmlns="http://www.w3.org/2000/svg"><g><path d="m489 194.27v40h15.5v211.78h-497v-211.78h15.5v-40h-15.5v-98.2h497v98.2z" fill="#56788b"/><path d="m489 194.27v40h15.5v211.78h-497v-20h467.71c5.13 0 9.29-4.16 9.29-9.29v-174.74c0-4.34-3.57-7.66-7.91-7.75-4.21-.08-7.59-3.52-7.59-7.75v-24.5c0-4.22 3.38-7.66 7.59-7.74 4.34-.09 7.91-3.41 7.91-7.75v-90.46h20v98.2z" fill="#415e6f"/><path d="m61 126.07v268.77l21.21 21.21h347.58l21.21-21.21v-268.77z" fill="#99e7fa"/><path d="m421 126.07v251.623c0 6.29-5.1 11.39-11.39 11.39h-307.23c-6.29 0-11.38-5.1-11.38-11.39v-251.623z" fill="#4dd4f7"/><path d="m228.772 446.048h54.455v58.452h-54.455z" fill="#dae1ea"/><path d="m263.228 446.048h20v58.452h-20z" fill="#b9cfdf"/><g><g><path d="m131 96.068h250v29.998h-250z" fill="#b9cfdf"/><path d="m361 96.068h20v29.998h-20z" fill="#90abbd"/></g><g><path d="m111 7.5h290v88.57h-290z" fill="#eef0f5"/><path d="m401 7.5v88.57h-290v-20h260.21c5.41 0 9.79-4.38 9.79-9.79v-58.78z" fill="#dae1ea"/><g><path d="m141.126 36.785h30v29.998h-30z" fill="#00cec8"/><path d="m201.126 36.785h30v29.998h-30z" fill="#ff4656"/></g></g><g><path d="m131 214.634h250v29.998h-250z" fill="#b9cfdf"/><path d="m361 214.634h20v29.998h-20z" fill="#90abbd"/></g><g><path d="m111 126.066h290v88.57h-290z" fill="#eef0f5"/><path d="m401 126.066v88.57h-290v-20h260.21c5.41 0 9.79-4.38 9.79-9.79v-58.78z" fill="#dae1ea"/><g><path d="m141.126 155.351h30v29.998h-30z" fill="#00cec8"/><path d="m201.126 155.351h30v29.998h-30z" fill="#ff4656"/></g></g><g><path d="m111 244.633h290v88.57h-290z" fill="#eef0f5"/><path d="m401 244.633v88.57h-290v-20h260.21c5.41 0 9.79-4.38 9.79-9.79v-58.78z" fill="#dae1ea"/><g><path d="m141.126 273.918h30v29.998h-30z" fill="#00cec8"/><path d="m201.126 273.918h30v29.998h-30z" fill="#ff4656"/></g></g></g></g><g><path d="m133.626 36.785v29.998c0 4.142 3.358 7.5 7.5 7.5h30c4.142 0 7.5-3.358 7.5-7.5v-29.998c0-4.142-3.358-7.5-7.5-7.5h-30c-4.142 0-7.5 3.358-7.5 7.5zm15 7.5h15v14.998h-15z"/><path d="m231.126 74.283c4.142 0 7.5-3.358 7.5-7.5v-29.998c0-4.142-3.358-7.5-7.5-7.5h-30c-4.142 0-7.5 3.358-7.5 7.5v29.998c0 4.142 3.358 7.5 7.5 7.5zm-22.5-29.998h15v14.998h-15z"/><path d="m171.126 147.852h-30c-4.142 0-7.5 3.358-7.5 7.5v29.998c0 4.142 3.358 7.5 7.5 7.5h30c4.142 0 7.5-3.358 7.5-7.5v-29.998c0-4.143-3.358-7.5-7.5-7.5zm-7.5 29.998h-15v-14.998h15z"/><path d="m231.126 147.852h-30c-4.142 0-7.5 3.358-7.5 7.5v29.998c0 4.142 3.358 7.5 7.5 7.5h30c4.142 0 7.5-3.358 7.5-7.5v-29.998c0-4.143-3.358-7.5-7.5-7.5zm-7.5 29.998h-15v-14.998h15z"/><path d="m141.126 311.416h30c4.142 0 7.5-3.358 7.5-7.5v-29.999c0-4.142-3.358-7.5-7.5-7.5h-30c-4.142 0-7.5 3.358-7.5 7.5v29.999c0 4.142 3.358 7.5 7.5 7.5zm7.5-29.999h15v14.999h-15z"/><path d="m201.126 311.416h30c4.142 0 7.5-3.358 7.5-7.5v-29.999c0-4.142-3.358-7.5-7.5-7.5h-30c-4.142 0-7.5 3.358-7.5 7.5v29.999c0 4.142 3.358 7.5 7.5 7.5zm7.5-29.999h15v14.999h-15z"/><path d="m504.5 201.774c4.142 0 7.5-3.358 7.5-7.5v-98.206c0-4.142-3.358-7.5-7.5-7.5h-96v-81.068c0-4.142-3.358-7.5-7.5-7.5h-212.741c-4.142 0-7.5 3.358-7.5 7.5s3.358 7.5 7.5 7.5h205.241v73.568h-275v-73.568h35.173c4.142 0 7.5-3.358 7.5-7.5s-3.358-7.5-7.5-7.5h-42.673c-4.142 0-7.5 3.358-7.5 7.5v81.068h-96c-4.142 0-7.5 3.358-7.5 7.5v98.206c0 4.142 3.358 7.5 7.5 7.5h8v24.998h-8c-4.142 0-7.5 3.358-7.5 7.5v211.776c0 4.142 3.358 7.5 7.5 7.5h213.772v14.226h-15.272c-4.142 0-7.5 3.358-7.5 7.5s3.358 7.5 7.5 7.5h15.272v14.226h-95.272c-4.142 0-7.5 3.358-7.5 7.5s3.358 7.5 7.5 7.5h260c4.142 0 7.5-3.358 7.5-7.5s-3.358-7.5-7.5-7.5h-95.272v-14.226h15.272c4.142 0 7.5-3.358 7.5-7.5s-3.358-7.5-7.5-7.5h-15.272v-14.226h213.772c4.142 0 7.5-3.358 7.5-7.5v-147.132c0-4.142-3.358-7.5-7.5-7.5s-7.5 3.358-7.5 7.5v139.632h-482v-196.776h8c4.142 0 7.5-3.358 7.5-7.5v-39.998c0-4.142-3.358-7.5-7.5-7.5h-8v-83.206h108.5v14.998h-62.5c-4.142 0-7.5 3.358-7.5 7.5v268.771c0 1.989.79 3.897 2.197 5.304l21.213 21.212c1.407 1.406 3.314 2.196 5.303 2.196h30.205c4.142 0 7.5-3.358 7.5-7.5s-3.358-7.5-7.5-7.5h-27.098l-16.82-16.818v-258.165h35v81.068c0 4.142 3.358 7.5 7.5 7.5h12.5v14.998h-12.5c-4.142 0-7.5 3.358-7.5 7.5v88.568c0 4.142 3.358 7.5 7.5 7.5h137.692v20.806h-137.5c-4.142 0-7.5 3.358-7.5 7.5s3.358 7.5 7.5 7.5h290c4.142 0 7.5-3.358 7.5-7.5s-3.358-7.5-7.5-7.5h-137.5v-20.806h137.308c4.142 0 7.5-3.358 7.5-7.5v-88.568c0-4.142-3.358-7.5-7.5-7.5h-12.5v-14.998h12.5c4.142 0 7.5-3.358 7.5-7.5v-81.068h35v258.165l-16.82 16.819h-279.411c-4.142 0-7.5 3.358-7.5 7.5s3.358 7.5 7.5 7.5h282.518c1.989 0 3.896-.79 5.303-2.196l21.213-21.212c1.407-1.407 2.197-3.314 2.197-5.304v-268.772c0-4.142-3.358-7.5-7.5-7.5h-62.5v-14.998h108.5v83.206h-8c-4.142 0-7.5 3.358-7.5 7.5v39.998c0 4.142 3.358 7.5 7.5 7.5h8v22.428c0 4.142 3.358 7.5 7.5 7.5s7.5-3.358 7.5-7.5v-29.928c0-4.142-3.358-7.5-7.5-7.5h-8v-24.998zm-268.228 251.774h39.455v14.226h-39.455zm0 29.226h39.455v14.226h-39.455zm157.228-230.641v73.568h-275v-73.568zm-255-15v-14.998h235v14.998zm255-103.567v73.568h-275v-73.568h183.019c4.142 0 7.5-3.358 7.5-7.5s-3.358-7.5-7.5-7.5h-163.019v-14.998h235v14.998h-36.931c-4.142 0-7.5 3.358-7.5 7.5s3.358 7.5 7.5 7.5z"/><path d="m271.62 296.42c4.142 0 7.5-3.358 7.5-7.501s-3.358-7.501-7.5-7.501-7.5 3.358-7.5 7.501 3.357 7.501 7.5 7.501z"/><path d="m315.12 296.42c4.142 0 7.5-3.358 7.5-7.501s-3.358-7.501-7.5-7.501-7.5 3.358-7.5 7.501 3.357 7.501 7.5 7.501z"/><path d="m358.62 296.42c4.142 0 7.5-3.358 7.5-7.501s-3.358-7.501-7.5-7.501-7.5 3.358-7.5 7.501 3.357 7.501 7.5 7.501z"/><path d="m271.62 162.846c-4.142 0-7.5 3.358-7.5 7.501s3.358 7.501 7.5 7.501 7.5-3.358 7.5-7.501c0-4.142-3.358-7.501-7.5-7.501z"/><path d="m315.12 162.846c-4.142 0-7.5 3.358-7.5 7.501s3.358 7.501 7.5 7.501 7.5-3.358 7.5-7.501c0-4.142-3.358-7.501-7.5-7.501z"/><path d="m358.62 177.849c4.142 0 7.5-3.358 7.5-7.501s-3.358-7.501-7.5-7.501-7.5 3.358-7.5 7.501 3.357 7.501 7.5 7.501z"/><path d="m279.12 51.788c0-4.143-3.358-7.501-7.5-7.501s-7.5 3.358-7.5 7.501 3.358 7.501 7.5 7.501 7.5-3.358 7.5-7.501z"/><path d="m322.62 51.788c0-4.143-3.358-7.501-7.5-7.501s-7.5 3.358-7.5 7.501 3.358 7.501 7.5 7.501 7.5-3.358 7.5-7.501z"/><path d="m366.12 51.788c0-4.143-3.358-7.501-7.5-7.501s-7.5 3.358-7.5 7.501 3.358 7.501 7.5 7.501 7.5-3.358 7.5-7.501z"/></g></svg>