<svg id="Capa_1" enable-background="new 0 0 497 497" height="512" viewBox="0 0 497 497" width="512" xmlns="http://www.w3.org/2000/svg"><g><path d="m186.949 10.235c-14.445-8.673-32.287-13.152-48.372-8.14-20.81 6.484-34.334 27.581-38.293 49.015-3.547 19.203-.539 39.934 10.191 56.249 17.513 26.628 55.797 37.091 84.419 23.07 24.62-12.06 38.272-39.811 36.66-66.62-1.406-23.374-25.971-42.386-44.605-53.574z" fill="#ff83b4"/><path d="m310.051 10.235c14.445-8.673 32.287-13.152 48.372-8.14 20.81 6.484 34.334 27.581 38.293 49.015 3.547 19.203.539 39.934-10.191 56.249-17.513 26.628-55.797 37.091-84.419 23.07-24.62-12.06-38.272-39.811-36.66-66.62 1.406-23.374 25.971-42.386 44.605-53.574z" fill="#ff83b4"/><g fill="#ff71a8"><path d="m313.113 8.484c-1.037.562-2.057 1.148-3.063 1.752-18.634 11.188-43.198 30.199-44.604 53.574-1.612 26.809 12.04 54.56 36.66 66.62 3.185 1.56 6.495 2.801 9.878 3.766 16.225-16.239 26.26-38.664 26.26-63.433.001-24.186-9.575-46.141-25.131-62.279z"/><path d="m186.949 10.235c-1.006-.604-2.021-1.184-3.058-1.745-15.555 16.138-25.136 38.087-25.136 62.272 0 24.769 10.035 47.195 26.26 63.433 3.383-.965 6.693-2.206 9.878-3.766 24.62-12.06 38.272-39.811 36.66-66.62-1.405-23.374-25.97-42.386-44.604-53.574z"/></g><circle cx="248.5" cy="70.762" fill="#ff83b4" r="52.719"/><path d="m58.874 457.991c0 13.736 11.136 24.872 24.872 24.872h329.509c13.736 0 24.872-11.136 24.872-24.872v-349.202h-379.253z" fill="#ffbed8"/><path d="m189.084 259.117h249.042v-150.328h-379.252v349.202c0 13.736 11.136 24.872 24.872 24.872h42.618v-161.026c0-34.639 28.081-62.72 62.72-62.72z" fill="#ffabcd"/><path d="m190.134 103.483h116.732v373.801c0 10.889-8.827 19.716-19.716 19.716h-77.3c-10.889 0-19.716-8.827-19.716-19.716z" fill="#fff2cf"/><path d="m190.134 103.483h116.732v155.634h-116.732z" fill="#ffe1bd"/><path d="m447.787 190.148h-398.574c-16.434 0-29.756-13.322-29.756-29.756v-33.022c0-31.264 25.344-56.608 56.608-56.608h344.87c31.264 0 56.608 25.344 56.608 56.608v33.021c0 16.434-13.322 29.757-29.756 29.757z" fill="#fff2cf"/><g fill="#ffbed8"><ellipse cx="346.308" cy="146.064" rx="22.076" ry="17.984"/><ellipse cx="150.692" cy="146.064" rx="22.076" ry="17.984"/></g><g><g><g><g><g><path d="m191.558 137.551c-4.142 0-7.5-3.358-7.5-7.5 0-3.097-2.52-5.617-5.617-5.617s-5.617 2.52-5.617 5.617c0 4.142-3.358 7.5-7.5 7.5s-7.5-3.358-7.5-7.5c0-11.368 9.249-20.617 20.617-20.617s20.617 9.249 20.617 20.617c0 4.142-3.358 7.5-7.5 7.5z" fill="#333942"/></g><g><path d="m331.676 137.551c-4.142 0-7.5-3.358-7.5-7.5 0-3.097-2.52-5.617-5.617-5.617s-5.617 2.52-5.617 5.617c0 4.142-3.358 7.5-7.5 7.5s-7.5-3.358-7.5-7.5c0-11.368 9.249-20.617 20.617-20.617s20.617 9.249 20.617 20.617c0 4.142-3.358 7.5-7.5 7.5z" fill="#333942"/></g></g></g><g><path d="m248.436 151.524c-8.229 0-16.434-2.762-24.736-8.287-3.449-2.294-4.384-6.95-2.089-10.398 2.294-3.449 6.951-4.385 10.398-2.089 11.492 7.647 21.365 7.64 33.013-.022 3.46-2.276 8.111-1.317 10.388 2.144 2.277 3.46 1.317 8.111-2.144 10.388-8.373 5.509-16.613 8.264-24.83 8.264z" fill="#333942"/></g></g></g></g></svg>