<svg height="511pt" viewBox="-41 1 511 511.999" width="511pt" xmlns="http://www.w3.org/2000/svg"><path d="m356.839844 512h-322.28125c-18.8125 0-34.058594-15.25-34.058594-34.058594v-419.839844c0-18.808593 15.246094-34.054687 34.058594-34.054687h322.28125c18.808594 0 34.058594 15.246094 34.058594 34.054687v419.839844c0 18.808594-15.25 34.058594-34.058594 34.058594zm0 0" fill="#eeeeed"/><path d="m34.558594 512h322.28125c3.613281 0 7.097656-.570312 10.367187-1.613281-267.960937-185.125-261.320312-344.027344-260.5625-486.339844h-72.085937c-18.8125 0-34.058594 15.246094-34.058594 34.058594v419.835937c0 18.808594 15.246094 34.058594 34.058594 34.058594zm0 0" fill="#dfdfdd"/><path d="m230.429688 74.722656h-174.109376c-8.222656 0-14.886718 6.664063-14.886718 14.886719v12.152344c0 8.21875 6.664062 14.886719 14.886718 14.886719h174.109376c8.222656 0 14.890624-6.667969 14.890624-14.886719v-12.152344c-.003906-8.21875-6.667968-14.886719-14.890624-14.886719zm0 0" fill="#495059"/><path d="m56.320312 116.648438h51.707032c-.875-14.136719-1.277344-28.109376-1.441406-41.925782h-50.265626c-8.222656 0-14.886718 6.664063-14.886718 14.886719v12.152344c0 8.21875 6.664062 14.886719 14.886718 14.886719zm0 0" fill="#41464f"/><g fill="#495059"><path d="m348.753906 271.226562h-127.46875c-4.144531 0-7.5-3.355468-7.5-7.5 0-4.140624 3.355469-7.5 7.5-7.5h127.472656c4.140626 0 7.5 3.359376 7.5 7.5-.003906 4.144532-3.359374 7.5-7.503906 7.5zm0 0"/><path d="m348.753906 303.652344h-127.46875c-4.144531 0-7.5-3.355469-7.5-7.5 0-4.140625 3.355469-7.5 7.5-7.5h127.472656c4.140626 0 7.5 3.359375 7.5 7.5-.003906 4.144531-3.359374 7.5-7.503906 7.5zm0 0"/><path d="m278.835938 238.800781h-57.550782c-4.144531 0-7.5-3.359375-7.5-7.5 0-4.144531 3.355469-7.5 7.5-7.5h57.550782c4.144531 0 7.5 3.355469 7.5 7.5 0 4.140625-3.355469 7.5-7.5 7.5zm0 0"/></g><path d="m171.949219 252.039062c0-44.757812-29.21875-81.042968-65.257813-81.042968-36.042968 0-65.257812 36.285156-65.257812 81.042968 0 44.757813 29.214844 81.039063 65.257812 81.039063 36.039063 0 65.257813-36.28125 65.257813-81.039063zm0 0" fill="#79ace2"/><path d="m106.691406 170.996094c-32.160156 0-58.871094 28.898437-64.25 66.925781 28.199219 16.085937 70.746094 53.804687 126.722656 37.558594 1.804688-7.421875 2.785157-15.289063 2.785157-23.445313 0-44.757812-29.21875-81.039062-65.257813-81.039062zm0 0" fill="#a2d5ec"/><path d="m81.171875 263.726562c0-6.5625-6.683594-11.882812-14.925781-11.882812-8.242188 0-14.921875 5.320312-14.921875 11.882812s6.679687 11.882813 14.921875 11.882813c8.242187 0 14.925781-5.320313 14.925781-11.882813zm0 0" fill="#f8b8bd"/><path d="m162.054688 263.726562c0-6.5625-6.679688-11.882812-14.921876-11.882812-8.242187 0-14.921874 5.320312-14.921874 11.882812s6.679687 11.882813 14.921874 11.882813c8.242188 0 14.921876-5.320313 14.921876-11.882813zm0 0" fill="#f8b8bd"/><path d="m74.945312 259.371094c-4.144531 0-7.5-3.355469-7.5-7.5v-5.269532c0-4.140624 3.355469-7.5 7.5-7.5 4.140626 0 7.5 3.359376 7.5 7.5v5.269532c0 4.144531-3.359374 7.5-7.5 7.5zm0 0" fill="#495059"/><path d="m138.4375 259.371094c-4.144531 0-7.5-3.355469-7.5-7.5v-5.269532c0-4.140624 3.355469-7.5 7.5-7.5 4.140625 0 7.5 3.359376 7.5 7.5v5.269532c0 4.144531-3.359375 7.5-7.5 7.5zm0 0" fill="#495059"/><path d="m106.691406 263.417969c-5.378906 0-10.488281-2.328125-14.027344-6.386719-2.71875-3.121094-2.394531-7.859375.730469-10.582031 3.121094-2.71875 7.859375-2.394531 10.578125.730469.40625.460937 1.292969 1.238281 2.71875 1.238281 1.421875 0 2.308594-.777344 2.714844-1.238281 2.71875-3.125 7.457031-3.449219 10.578125-.730469 3.125 2.722656 3.449219 7.460937.730469 10.582031-3.535156 4.058594-8.648438 6.386719-14.023438 6.386719zm0 0" fill="#495059"/><path d="m398.585938 109.007812h-81.8125v82.078126c0 11.023437 11.851562 17.984374 21.476562 12.613281l10.28125-5.734375c5.6875-3.171875 12.609375-3.171875 18.300781 0l10.277344 5.734375c9.628906 5.367187 21.476563-1.589844 21.476563-12.613281zm0 0" fill="#eb8d9a"/><path d="m316.773438 152.433594c4.375 2.664062 9.488281 4.164062 14.882812 4.164062 3.394531 0 6.742188-.601562 9.941406-1.789062l16.082032-5.96875 16.082031 5.96875c3.203125 1.1875 6.546875 1.789062 9.945312 1.789062 5.390625 0 10.503907-1.5 14.878907-4.164062v-43.425782h-81.8125zm0 0" fill="#d67c88"/><path d="m352.824219 135.03125-16.316407 6.054688c-7.417968 2.753906-15.640624-1.207032-18.117187-8.726563l-5.4375-16.53125c-1.046875-3.171875-3.195313-5.867187-6.054687-7.59375l-14.90625-8.980469c-6.78125-4.085937-8.8125-12.980468-4.476563-19.605468l9.53125-14.558594c1.832031-2.796875 2.597656-6.15625 2.160156-9.46875l-2.269531-17.253906c-1.03125-7.847657 4.65625-14.980469 12.535156-15.71875l17.328125-1.625c3.328125-.3125 6.433594-1.808594 8.75-4.214844l12.074219-12.535156c5.492188-5.699219 14.617188-5.699219 20.109375 0l12.074219 12.535156c2.316406 2.40625 5.421875 3.902344 8.75 4.214844l17.324218 1.625c7.882813.738281 13.570313 7.875 12.539063 15.71875l-2.269531 17.253906c-.4375 3.3125.328125 6.675781 2.160156 9.46875l9.53125 14.558594c4.335938 6.625 2.304688 15.519531-4.476562 19.605468l-14.902344 8.980469c-2.863282 1.726563-5.011719 4.421875-6.054688 7.59375l-5.441406 16.53125c-2.472656 7.519531-10.695312 11.480469-18.117188 8.726563l-16.316406-6.054688c-3.132812-1.160156-6.578125-1.160156-9.710937 0zm0 0" fill="#f6c273"/><path d="m396.929688 74.183594c0 21.679687-17.574219 39.25-39.25 39.25-21.675782 0-39.25-17.570313-39.25-39.25 0-21.675782 17.574218-39.246094 39.25-39.246094 21.675781 0 39.25 17.570312 39.25 39.246094zm0 0" fill="#f8e47c"/><path d="m138.386719 423.621094c-1.117188 0-2.25-.253906-3.320313-.78125-3.714844-1.839844-5.230468-6.335938-3.394531-10.050782 2.34375-4.726562 1.546875-7.34375 1.011719-7.714843-.894532-.609375-5.554688-.175781-11.851563 6.644531-8.503906 9.210938-22.121093 12.941406-31.007812 8.503906-4.515625-2.257812-7.285157-6.371094-7.828125-11.296875-3.011719 2.042969-6.519532 5.300781-8.082032 8.5625-1.789062 3.734375-6.273437 5.308594-10.003906 3.519531-3.738281-1.789062-5.3125-6.269531-3.523437-10.003906 4.605469-9.609375 19.386719-21.929687 29.578125-18.613281 4.375 1.421875 8.507812 5.878906 6.992187 14.121094-.03125.175781-.050781.324219-.058593.441406 1.964843.566406 8.167968-.265625 12.910156-5.40625 7.921875-8.582031 20.894531-16.042969 31.378906-8.828125 8.84375 6.085938 8.347656 17.808594 3.929688 26.726562-1.3125 2.644532-3.96875 4.175782-6.730469 4.175782zm0 0" fill="#495059"/><path d="m161.261719 455.648438h-109.882813c-4.140625 0-7.5-3.355469-7.5-7.5 0-4.140626 3.359375-7.5 7.5-7.5h109.882813c4.140625 0 7.5 3.359374 7.5 7.5 0 4.144531-3.359375 7.5-7.5 7.5zm0 0" fill="#eb8d9a"/><path d="m340.015625 455.648438h-109.882813c-4.140624 0-7.5-3.355469-7.5-7.5 0-4.140626 3.359376-7.5 7.5-7.5h109.882813c4.144531 0 7.5 3.359374 7.5 7.5 0 4.144531-3.355469 7.5-7.5 7.5zm0 0" fill="#eb8d9a"/><path d="m331.195312 424.984375c-1.617187 0-3.246093-.519531-4.617187-1.589844-2.65625-2.078125-3.53125-5.589843-2.386719-8.582031-.972656.246094-2.054687.664062-3.136718 1.335938-12.355469 7.644531-22.269532 8.28125-30.238282 8.792968-8.289062.539063-10.839844-4.1875-11.554687-6.242187-2.371094-6.8125 2.976562-13.664063 19.734375-25.285157.96875-.671874 1.644531-1.238281 2.117187-1.683593-3.257812-1.75-11.617187-3.640625-22.144531-2.570313-21.605469 2.195313-30.769531 10.148438-36.335938 16.832032-.632812.761718-.929687 1.335937-1.050781 1.660156 1.179688 1.0625 6.644531 3.503906 19.960938 1.621094 4.089843-.582032 7.898437 2.273437 8.476562 6.375.578125 4.105468-2.273437 7.898437-6.375 8.476562-24.289062 3.433594-32.570312-4.386719-35.339843-9.355469-3.136719-5.632812-2.089844-12.5 2.804687-18.375 10.832031-13.007812 25.558594-20.046875 46.347656-22.15625 15.800781-1.605469 34.664063 1.710938 38.753907 12.78125 1.394531 3.777344 2.125 11.238281-8.667969 18.722657-.753907.523437-1.46875 1.023437-2.144531 1.511718 2.425781-.90625 4.988281-2.144531 7.765624-3.859375 8.761719-5.421875 19.726563-5.085937 24.960938.757813 3.363281 3.75 4.859375 10.441406-1.019531 17.957031-1.476563 1.886719-3.683594 2.875-5.910157 2.875zm0 0" fill="#495059"/></svg>