<svg id="Capa_1" enable-background="new 0 0 497 497" height="512" viewBox="0 0 497 497" width="512" xmlns="http://www.w3.org/2000/svg"><g><g fill="#eeaa97"><path d="m440.11 414.136-191.61 41.432-191.61-41.432v-82.865l191.61-41.432 191.61 41.432z"/><path d="m41.05 46.608v106.578h57.247v-106.578l-28.624-23.304z"/><path d="m56.89 248.407v-64.894l191.61-144.168 191.61 144.168v64.894l-191.61 23.166z"/></g><path d="m56.89 248.407h383.22v82.864h-383.22z" fill="#e5866e"/><circle cx="440.11" cy="289.839" fill="#eeaa97" r="41.432"/><circle cx="440.11" cy="372.704" fill="#e5866e" r="41.432"/><path d="m56.89 414.135v82.865h123.307l68.303-14.695 68.304 14.695h-.001 123.307v-82.865z" fill="#e5866e"/><circle cx="440.11" cy="455.568" fill="#eeaa97" r="41.432"/><circle cx="56.89" cy="289.839" fill="#eeaa97" r="41.432"/><circle cx="56.89" cy="372.704" fill="#e5866e" r="41.432"/><circle cx="56.89" cy="455.568" fill="#eeaa97" r="41.432"/><path d="m282.68 289.839h-68.36c-18.846 0-34.123 15.278-34.123 34.123v173.038h136.607v-173.038c0-18.845-15.278-34.123-34.124-34.123z" fill="#77e4d3"/><path d="m219.167 328.808h58.667v168.192h-58.667z" fill="#e5866e"/><path d="m56.89 183.513v57.996c3.12-1.268 6.117-2.871 8.942-4.807l182.668-125.208 182.667 125.208c2.825 1.937 5.822 3.54 8.942 4.807v-57.996l-191.609-144.168z" fill="#e5866e"/><path d="m486.686 155.707-218.07-149.475c-12.123-8.31-28.109-8.31-40.232 0l-218.07 149.475c-7.806 5.351-9.797 16.016-4.446 23.822l19.18 27.983c5.351 7.806 16.016 9.797 23.822 4.446l199.63-136.835 199.63 136.835c7.806 5.351 18.472 3.36 23.822-4.446l19.18-27.983c5.351-7.806 3.36-18.471-4.446-23.822z" fill="#77e4d3"/><g><g><g><ellipse cx="160.468" cy="207.653" fill="#e2e2e2" rx="32.482" ry="25.867"/></g><g><ellipse cx="336.533" cy="207.653" fill="#e2e2e2" rx="32.482" ry="25.867"/></g></g></g><g><path d="m179.398 190.252c-4.142 0-7.5-3.358-7.5-7.5v-13.278c0-4.142 3.358-7.5 7.5-7.5s7.5 3.358 7.5 7.5v13.278c0 4.142-3.357 7.5-7.5 7.5z" fill="#423e4f"/></g><g><path d="m317.602 190.252c-4.142 0-7.5-3.358-7.5-7.5v-13.278c0-4.142 3.358-7.5 7.5-7.5s7.5 3.358 7.5 7.5v13.278c0 4.142-3.358 7.5-7.5 7.5z" fill="#423e4f"/></g><g><path d="m248.5 198.156c-9.15 0-17.851-3.963-23.873-10.872-2.721-3.123-2.396-7.86.727-10.582 3.124-2.721 7.861-2.396 10.582.727 3.172 3.64 7.751 5.727 12.564 5.727s9.392-2.087 12.564-5.727c2.722-3.123 7.459-3.448 10.582-.727s3.448 7.459.727 10.582c-6.021 6.909-14.723 10.872-23.873 10.872z" fill="#423e4f"/></g><path d="m41.05 46.608v30h57.246.001v-30l-28.624-23.304z" fill="#e5866e"/><path d="m98.297 0h-57.247c-9.484 0-17.172 7.688-17.172 17.172v12.264c0 9.484 7.688 17.172 17.172 17.172h57.246c9.484 0 17.172-7.688 17.172-17.172v-12.264c.001-9.484-7.688-17.172-17.171-17.172z" fill="#77e4d3"/></g></svg>