<svg height="512pt" viewBox="-49 0 512 512" width="512pt" xmlns="http://www.w3.org/2000/svg"><path d="m307.066406 512h-275.246094c-17.574218 0-31.820312-14.246094-31.820312-31.820312v-448.359376c0-17.574218 14.246094-31.820312 31.820312-31.820312h350.742188c17.574219 0 31.820312 14.246094 31.820312 31.820312v372.863282c0 59.269531-48.046874 107.316406-107.316406 107.316406zm0 0" fill="#eeeeed"/><path d="m307.066406 512c.367188 0 .730469-.023438 1.097656-.027344-187.816406-83.34375-198.257812-348.449218-198.640624-511.972656h-77.703126c-17.574218 0-31.820312 14.246094-31.820312 31.820312v448.359376c0 17.574218 14.246094 31.820312 31.820312 31.820312zm0 0" fill="#dfdfdd"/><path d="m322.210938 165.382812h-230.039063c-17.804687 0-32.238281-14.433593-32.238281-32.238281v-47.320312c0-17.804688 14.433594-32.238281 32.238281-32.238281h230.039063c17.804687 0 32.238281 14.433593 32.238281 32.238281v47.320312c0 17.804688-14.433594 32.238281-32.238281 32.238281zm0 0" fill="#7bd0a7"/><path d="m92.171875 53.585938c-17.804687 0-32.238281 14.433593-32.238281 32.238281v47.320312c0 17.804688 14.433594 32.238281 32.238281 32.238281h24.761719c-4.109375-38.609374-5.960938-76.566406-6.785156-111.796874zm0 0" fill="#70bd98"/><path d="m307.066406 512c59.269532 0 107.316406-48.046875 107.316406-107.316406l-4.175781 6.683594c-8.957031 14.34375-24.671875 23.054687-41.582031 23.054687-17.574219 0-31.820312 14.25-31.820312 31.820313 0 16.910156-8.714844 32.625-23.054688 41.582031zm0 0" fill="#bebfc0"/><path d="m144.367188 248.042969c0 17.703125-14.351563 32.054687-32.054688 32.054687s-32.054688-14.351562-32.054688-32.054687 14.351563-32.054688 32.054688-32.054688 32.054688 14.351563 32.054688 32.054688zm0 0" fill="#7397da"/><path d="m112.3125 280.097656c8.714844 0 16.613281-3.484375 22.390625-9.128906-4.214844-17.394531-7.730469-35.042969-10.65625-52.753906-3.636719-1.433594-7.59375-2.226563-11.734375-2.226563-17.703125 0-32.054688 14.351563-32.054688 32.054688s14.351563 32.054687 32.054688 32.054687zm0 0" fill="#6988c4"/><path d="m144.367188 342.515625c0 17.703125-14.351563 32.054687-32.054688 32.054687s-32.054688-14.351562-32.054688-32.054687 14.351563-32.054687 32.054688-32.054687 32.054688 14.351562 32.054688 32.054687zm0 0" fill="#6988c4"/><path d="m272.5625 255.542969h-98.910156c-4.144532 0-7.5-3.355469-7.5-7.5s3.355468-7.5 7.5-7.5h98.910156c4.144531 0 7.5 3.355469 7.5 7.5s-3.355469 7.5-7.5 7.5zm0 0" fill="#495059"/><path d="m272.5625 350.015625h-98.910156c-4.144532 0-7.5-3.359375-7.5-7.5 0-4.144531 3.355468-7.5 7.5-7.5h98.910156c4.144531 0 7.5 3.355469 7.5 7.5 0 4.140625-3.355469 7.5-7.5 7.5zm0 0" fill="#495059"/><path d="m144.367188 436.984375c0 17.707031-14.351563 32.054687-32.054688 32.054687s-32.054688-14.347656-32.054688-32.054687c0-17.703125 14.351563-32.054687 32.054688-32.054687s32.054688 14.351562 32.054688 32.054687zm0 0" fill="#6988c4"/><g fill="#495059"><path d="m272.5625 444.484375h-98.910156c-4.144532 0-7.5-3.355469-7.5-7.5 0-4.140625 3.355468-7.5 7.5-7.5h98.910156c4.144531 0 7.5 3.359375 7.5 7.5 0 4.144531-3.355469 7.5-7.5 7.5zm0 0"/><path d="m115.5625 264.210938c-1.917969 0-3.839844-.734376-5.304688-2.199219l-13.664062-13.664063c-2.929688-2.929687-2.929688-7.679687 0-10.609375 2.929688-2.925781 7.675781-2.925781 10.605469 0l8.363281 8.363281 57.136719-57.136718c2.929687-2.929688 7.679687-2.929688 10.605469 0 2.929687 2.929687 2.929687 7.679687 0 10.605468l-62.441407 62.441407c-1.460937 1.464843-3.382812 2.199219-5.300781 2.199219zm0 0"/><path d="m334.125 255.542969h-22.726562c-4.140626 0-7.5-3.355469-7.5-7.5s3.359374-7.5 7.5-7.5h22.726562c4.140625 0 7.5 3.355469 7.5 7.5s-3.359375 7.5-7.5 7.5zm0 0"/><path d="m334.125 350.015625h-22.726562c-4.140626 0-7.5-3.359375-7.5-7.5 0-4.144531 3.359374-7.5 7.5-7.5h22.726562c4.140625 0 7.5 3.355469 7.5 7.5 0 4.140625-3.359375 7.5-7.5 7.5zm0 0"/><path d="m334.125 444.484375h-22.726562c-4.140626 0-7.5-3.355469-7.5-7.5 0-4.140625 3.359374-7.5 7.5-7.5h22.726562c4.140625 0 7.5 3.359375 7.5 7.5 0 4.144531-3.359375 7.5-7.5 7.5zm0 0"/></g><path d="m155.179688 127.394531c0-13.378906-13.613282-24.21875-30.410157-24.21875s-30.414062 10.839844-30.414062 24.21875c0 13.375 13.617187 24.21875 30.414062 24.21875s30.410157-10.84375 30.410157-24.21875zm0 0" fill="#fff"/><path d="m320.023438 127.394531c0-13.378906-13.613282-24.21875-30.410157-24.21875s-30.414062 10.839844-30.414062 24.21875c0 13.375 13.617187 24.21875 30.414062 24.21875s30.410157-10.84375 30.410157-24.21875zm0 0" fill="#fff"/><path d="m142.492188 110.730469c-4.140626 0-7.5-3.355469-7.5-7.5v-10.738281c0-4.140626 3.359374-7.5 7.5-7.5 4.144531 0 7.5 3.359374 7.5 7.5v10.738281c0 4.144531-3.355469 7.5-7.5 7.5zm0 0" fill="#495059"/><path d="m271.890625 110.730469c-4.144531 0-7.5-3.355469-7.5-7.5v-10.738281c0-4.140626 3.355469-7.5 7.5-7.5 4.140625 0 7.5 3.359374 7.5 7.5v10.738281c0 4.144531-3.359375 7.5-7.5 7.5zm0 0" fill="#495059"/><path d="m207.191406 118.980469c-8.707031 0-16.980468-3.769531-22.710937-10.34375-2.722657-3.125-2.394531-7.859375.726562-10.582031 3.121094-2.722657 7.859375-2.398438 10.582031.726562 2.878907 3.304688 7.035157 5.199219 11.402344 5.199219 4.367188 0 8.523438-1.894531 11.402344-5.199219 2.71875-3.125 7.457031-3.445312 10.582031-.726562 3.121094 2.722656 3.449219 7.457031.726563 10.582031-5.730469 6.574219-14.007813 10.34375-22.710938 10.34375zm0 0" fill="#495059"/></svg>