<svg id="Capa_1" enable-background="new 0 0 512 512" height="512" viewBox="0 0 512 512" width="512" xmlns="http://www.w3.org/2000/svg"><g><path d="m497 0h-482c-8.284 0-15 6.716-15 15v271c0 8.284 6.716 15 15 15h181v91.159h-29.22c-13.332 0-20.069 16.208-10.571 25.643l90.449 89.841c5.88 5.839 15.382 5.805 21.218-.077l89.155-89.84c9.376-9.45 2.658-25.566-10.647-25.566h-30.384v-91.16h181c8.284 0 15-6.716 15-15v-271c0-8.284-6.716-15-15-15z" fill="#46e8a2"/><path d="m512 15v271c0 8.28-6.72 15-15 15h-181v91.16h30.38c13.31 0 20.03 16.12 10.65 25.57l-89.15 89.84c-3.25 3.27-7.63 4.73-11.88 4.37v-511.94h241c8.28 0 15 6.72 15 15z" fill="#00c98b"/><circle cx="256" cy="150.5" fill="#00c98b" r="90.5"/><path d="m346.5 150.5c0 49.9-40.6 90.5-90.5 90.5v-181c49.9 0 90.5 40.6 90.5 90.5z" fill="#009679"/><path d="m120.95 135.5h-30c-8.284 0-15 6.716-15 15s6.716 15 15 15h30c8.284 0 15-6.716 15-15s-6.716-15-15-15z" fill="#00c98b"/><path d="m420.95 135.5h-30c-8.284 0-15 6.716-15 15s6.716 15 15 15h30c8.284 0 15-6.716 15-15s-6.716-15-15-15z" fill="#009679"/><path d="m15 0h75v15c0 41.46-33.54 75-75 75h-15v-75c0-8.28 6.72-15 15-15z" fill="#00c98b"/><path d="m90 286v15h-75c-8.28 0-15-6.72-15-15v-75h15c41.46 0 75 33.54 75 75z" fill="#00c98b"/><g fill="#009679"><path d="m512 15v75h-15c-41.46 0-75-33.54-75-75v-15h75c8.28 0 15 6.72 15 15z"/><path d="m497 211h15v75c0 8.28-6.72 15-15 15h-75v-15c0-41.46 33.54-75 75-75z"/></g></g></svg>