<?xml version="1.0" encoding="iso-8859-1"?>
<!-- Generator: Adobe Illustrator 19.0.0, SVG Export Plug-In . SVG Version: 6.00 Build 0)  -->
<svg version="1.1" id="Capa_1" xmlns="http://www.w3.org/2000/svg" xmlns:xlink="http://www.w3.org/1999/xlink" x="0px" y="0px"
	 viewBox="0 0 512 512" style="enable-background:new 0 0 512 512;" xml:space="preserve">
<path style="fill:#54CBFF;" d="M340.778,356.007c-3.895,0-7.789-1.486-10.76-4.458l-40.369-40.369
	c-5.943-5.942-5.943-15.577,0-21.52c5.942-5.942,15.577-5.942,21.52,0l40.369,40.369c5.943,5.942,5.943,15.577,0,21.52
	C348.566,354.521,344.672,356.007,340.778,356.007z"/>
<path style="fill:#003773;" d="M455.609,511.987c-14.44,0-28.881-5.496-39.874-16.49l-85.717-85.717
	c-10.651-10.651-16.517-24.811-16.517-39.874c0-15.064,5.866-29.224,16.517-39.875c21.987-21.986,57.762-21.988,79.748,0
	l85.717,85.717C506.134,426.397,512,440.558,512,455.622c0,15.063-5.866,29.224-16.517,39.874l0,0
	C484.49,506.49,470.05,511.987,455.609,511.987z"/>
<path style="fill:#BEE8FF;" d="M182.278,364.484c-46.677,0-93.354-17.768-128.89-53.303C18.96,276.753,0,230.979,0,182.291
	s18.96-94.462,53.388-128.89C87.815,18.973,133.59,0.013,182.278,0.013s94.462,18.96,128.89,53.388l0,0l0,0
	c34.428,34.427,53.388,80.202,53.388,128.89s-18.96,94.462-53.388,128.891C275.633,346.716,228.956,364.484,182.278,364.484z"/>
<path style="fill:#18A7FC;" d="M294.434,201.589l-14.417-8.324c0.808-7.284,0.808-14.666,0-21.95l14.417-8.324
	c3.495-2.018,6.045-5.342,7.09-9.24c1.045-3.898,0.498-8.052-1.521-11.547l-24.148-41.825c-2.018-3.495-5.341-6.045-9.24-7.09
	c-3.9-1.043-8.053-0.498-11.547,1.521l-14.397,8.313c-5.929-4.396-12.285-8.074-19.029-11.01V75.512
	c0-8.404-6.813-15.217-15.217-15.217h-48.294c-8.404,0-15.217,6.813-15.217,15.217v16.602c-6.742,2.936-13.1,6.614-19.029,11.01
	l-14.397-8.313c-3.495-2.018-7.649-2.563-11.547-1.521c-3.899,1.045-7.222,3.595-9.24,7.09l-24.148,41.825
	c-2.018,3.495-2.565,7.649-1.521,11.548c1.044,3.899,3.594,7.221,7.09,9.239l14.417,8.324c-0.808,7.284-0.808,14.666,0,21.95
	l-14.417,8.324c-3.495,2.018-6.045,5.341-7.09,9.239c-1.045,3.898-0.498,8.053,1.521,11.548l24.148,41.825
	c2.018,3.495,5.341,6.045,9.24,7.09c3.898,1.042,8.053,0.497,11.547-1.521l14.397-8.313c5.929,4.396,12.285,8.074,19.029,11.01
	v16.602c0,8.404,6.813,15.217,15.217,15.217h48.294c8.404,0,15.217-6.813,15.217-15.217v-16.602
	c6.742-2.936,13.1-6.614,19.029-11.01l14.397,8.313c3.495,2.018,7.648,2.564,11.547,1.521c3.899-1.045,7.222-3.595,9.24-7.09
	l24.148-41.825c2.018-3.495,2.565-7.649,1.521-11.547C300.479,206.932,297.928,203.608,294.434,201.589z M208.357,208.369
	c-6.966,6.966-16.227,10.803-26.078,10.803c-9.851,0-19.112-3.837-26.078-10.803c-14.379-14.38-14.379-37.776,0-52.156
	c6.966-6.966,16.228-10.803,26.078-10.803c9.852,0,19.113,3.837,26.078,10.803C222.735,170.593,222.735,193.989,208.357,208.369z"/>
<path style="fill:#54CBFF;" d="M311.168,311.182c34.428-34.428,53.388-80.203,53.388-128.891s-18.96-94.462-53.388-128.89
	C276.741,18.974,230.967,0.013,182.278,0.013v364.471C228.956,364.484,275.633,346.716,311.168,311.182z"/>
<path style="fill:#0074F0;" d="M301.524,153.752c1.045-3.898,0.498-8.052-1.521-11.547l-24.148-41.825
	c-2.018-3.495-5.341-6.045-9.24-7.09c-3.9-1.043-8.053-0.498-11.547,1.521l-14.397,8.313c-5.929-4.396-12.285-8.074-19.029-11.01
	V75.512c0-8.404-6.813-15.217-15.217-15.217h-24.148v85.115c9.852,0,19.113,3.837,26.078,10.803
	c14.379,14.38,14.379,37.776,0,52.156c-6.966,6.966-16.227,10.803-26.078,10.803v85.115h24.148c8.404,0,15.217-6.813,15.217-15.217
	v-16.602c6.742-2.936,13.1-6.614,19.029-11.01l14.397,8.313c3.495,2.018,7.648,2.564,11.547,1.521
	c3.899-1.045,7.222-3.595,9.24-7.09l24.148-41.825c2.018-3.495,2.565-7.649,1.521-11.547c-1.044-3.899-3.594-7.222-7.09-9.24
	l-14.417-8.324c0.808-7.284,0.808-14.666,0-21.95l14.417-8.324C297.928,160.974,300.479,157.65,301.524,153.752z"/>
<path style="fill:#0053AD;" d="M182.278,364.484c-46.677,0-93.354-17.769-128.89-53.303C18.961,276.753,0,230.979,0,182.291
	s18.961-94.462,53.388-128.89C87.815,18.973,133.59,0.013,182.278,0.013s94.462,18.96,128.891,53.388
	c71.07,71.069,71.07,186.709,0,257.78C275.633,346.716,228.956,364.484,182.278,364.484z M182.278,30.448
	c-40.558,0-78.689,15.793-107.37,44.474s-44.474,66.811-44.474,107.37s15.793,78.69,44.474,107.371
	c29.598,29.598,68.491,44.399,107.37,44.403c38.889,0.004,77.764-14.797,107.371-44.403c59.203-59.204,59.203-155.536,0-214.74
	C260.969,46.242,222.838,30.448,182.278,30.448z"/>
<path style="fill:#003773;" d="M182.278,0.013c-0.014,0-0.028,0-0.043,0v30.434c0.014,0,0.028,0,0.043,0
	c40.559,0,78.69,15.793,107.371,44.474c59.203,59.203,59.203,155.535,0,214.74c-29.607,29.606-68.481,44.406-107.371,44.403
	c-0.014,0-0.028,0-0.043,0v30.42c0.014,0,0.028,0,0.043,0c46.678,0,93.354-17.769,128.891-53.303
	c71.07-71.071,71.07-186.711,0-257.78C276.741,18.974,230.966,0.013,182.278,0.013z"/>
<g>
</g>
<g>
</g>
<g>
</g>
<g>
</g>
<g>
</g>
<g>
</g>
<g>
</g>
<g>
</g>
<g>
</g>
<g>
</g>
<g>
</g>
<g>
</g>
<g>
</g>
<g>
</g>
<g>
</g>
</svg>
