<svg height="512pt" viewBox="0 -53 512 511" width="512pt" xmlns="http://www.w3.org/2000/svg"><path d="m315.199219 88.40625h-271.246094c-24.273437 0-43.953125-19.675781-43.953125-43.953125 0-24.273437 19.679688-43.953125 43.953125-43.953125h271.25c24.273437 0 43.953125 19.679688 43.953125 43.953125 0 24.277344-19.679688 43.953125-43.957031 43.953125zm0 0" fill="#f1eded"/><path d="m359.160156 44.453125c0 12.140625-4.925781 23.136719-12.878906 31.089844s-18.9375 12.867187-31.078125 12.867187h-29.148437c12.136718 0 23.121093-4.914062 31.078124-12.867187 7.953126-7.953125 12.875-18.949219 12.875-31.089844 0-24.277344-19.6875-43.953125-43.953124-43.953125h29.148437c24.269531 0 43.957031 19.675781 43.957031 43.953125zm0 0" fill="#dad0cd"/><path d="m57.765625.5h56.214844v87.90625h-56.214844zm0 0" fill="#27bef4"/><path d="m92.867188.5h21.113281v87.90625h-21.113281zm0 0" fill="#209ced"/><g fill="#27bef4"><path d="m298.847656 44.453125c0 7.761719-6.292968 14.054687-14.054687 14.054687s-14.054688-6.292968-14.054688-14.054687 6.292969-14.054687 14.054688-14.054687 14.054687 6.292968 14.054687 14.054687zm0 0"/><path d="m209.628906 53.230469h-.109375c-4.265625 0-7.722656-3.457031-7.722656-7.722657 0-4.269531 3.457031-7.726562 7.722656-7.726562h.109375c4.265625 0 7.726563 3.457031 7.726563 7.726562 0 4.265626-3.460938 7.722657-7.726563 7.722657zm0 0"/><path d="m183.601562 53.230469h-.109374c-4.265626 0-7.722657-3.457031-7.722657-7.722657 0-4.269531 3.457031-7.726562 7.722657-7.726562h.109374c4.265626 0 7.726563 3.457031 7.726563 7.726562 0 4.265626-3.460937 7.722657-7.726563 7.722657zm0 0"/><path d="m157.574219 53.230469h-.109375c-4.265625 0-7.726563-3.457031-7.726563-7.722657 0-4.269531 3.460938-7.726562 7.726563-7.726562h.109375c4.265625 0 7.726562 3.457031 7.726562 7.726562 0 4.265626-3.457031 7.722657-7.726562 7.722657zm0 0"/></g><path d="m315.199219 176.316406h-271.246094c-24.273437 0-43.953125-19.679687-43.953125-43.957031 0-24.273437 19.679688-43.953125 43.953125-43.953125h271.25c24.273437 0 43.953125 19.679688 43.953125 43.953125 0 24.277344-19.679688 43.957031-43.957031 43.957031zm0 0" fill="#dad0cd"/><path d="m359.160156 132.363281c0 12.140625-4.925781 23.132813-12.878906 31.085938s-18.9375 12.867187-31.078125 12.867187h-29.148437c12.136718 0 23.121093-4.914062 31.078124-12.867187 7.953126-7.953125 12.875-18.945313 12.875-31.085938 0-24.277343-19.6875-43.957031-43.953124-43.957031h29.148437c24.269531 0 43.957031 19.679688 43.957031 43.957031zm0 0" fill="#c1bab8"/><path d="m57.765625 88.40625h56.214844v87.910156h-56.214844zm0 0" fill="#209ced"/><path d="m92.867188 88.40625h21.113281v87.910156h-21.113281zm0 0" fill="#197ae5"/><path d="m298.847656 132.359375c0 7.765625-6.292968 14.054687-14.054687 14.054687s-14.054688-6.289062-14.054688-14.054687c0-7.761719 6.292969-14.054687 14.054688-14.054687s14.054687 6.292968 14.054687 14.054687zm0 0" fill="#209ced"/><path d="m209.628906 141.140625c-.011718 0-.023437 0-.035156 0h-.109375c-4.265625-.023437-7.710937-3.496094-7.691406-7.761719.019531-4.257812 3.476562-7.691406 7.726562-7.691406h.035157.109374c4.265626.019531 7.710938 3.496094 7.691407 7.761719-.019531 4.253906-3.476563 7.691406-7.726563 7.691406zm0 0" fill="#209ced"/><path d="m183.601562 141.140625c-.011718 0-.023437 0-.035156 0h-.109375c-4.265625-.023437-7.710937-3.496094-7.6875-7.765625.019531-4.265625 3.46875-7.753906 7.761719-7.6875h.109375c4.265625.019531 7.707031 3.496094 7.6875 7.761719-.019531 4.253906-3.476563 7.691406-7.726563 7.691406zm0 0" fill="#209ced"/><path d="m157.574219 141.140625c-.011719 0-.023438 0-.035157 0h-.109374c-4.265626-.023437-7.710938-3.496094-7.691407-7.761719.019531-4.257812 3.476563-7.691406 7.726563-7.691406h.035156.109375c4.265625.019531 7.710937 3.496094 7.691406 7.761719-.019531 4.253906-3.476562 7.691406-7.726562 7.691406zm0 0" fill="#209ced"/><path d="m315.199219 264.222656h-271.246094c-24.273437 0-43.953125-19.679687-43.953125-43.953125 0-24.277343 19.679688-43.953125 43.953125-43.953125h271.25c24.273437 0 43.953125 19.675782 43.953125 43.953125 0 24.273438-19.679688 43.953125-43.957031 43.953125zm0 0" fill="#f1eded"/><path d="m359.160156 220.269531c0 12.140625-4.925781 23.132813-12.878906 31.085938-7.953125 7.957031-18.9375 12.871093-31.078125 12.871093h-29.148437c12.136718 0 23.121093-4.914062 31.078124-12.871093 7.953126-7.953125 12.875-18.945313 12.875-31.085938 0-24.277343-19.6875-43.953125-43.953124-43.953125h29.148437c24.269531 0 43.957031 19.675782 43.957031 43.953125zm0 0" fill="#dad0cd"/><path d="m57.765625 176.316406h56.214844v87.90625h-56.214844zm0 0" fill="#27bef4"/><path d="m92.867188 176.316406h21.113281v87.90625h-21.113281zm0 0" fill="#209ced"/><path d="m298.847656 220.269531c0 7.761719-6.292968 14.054688-14.054687 14.054688s-14.054688-6.292969-14.054688-14.054688 6.292969-14.054687 14.054688-14.054687 14.054687 6.292968 14.054687 14.054687zm0 0" fill="#27bef4"/><path d="m209.628906 229.046875c-.011718 0-.023437 0-.035156 0h-.109375c-4.265625-.019531-7.710937-3.496094-7.691406-7.761719.019531-4.253906 3.476562-7.691406 7.726562-7.691406h.035157.109374c4.265626.019531 7.710938 3.496094 7.691407 7.761719-.019531 4.257812-3.476563 7.691406-7.726563 7.691406zm0 0" fill="#27bef4"/><path d="m183.601562 229.046875c-.011718 0-.023437 0-.035156 0h-.109375c-4.265625-.019531-7.710937-3.496094-7.6875-7.761719.019531-4.269531 3.46875-7.695312 7.761719-7.691406h.109375c4.265625.019531 7.707031 3.496094 7.6875 7.761719-.019531 4.257812-3.476563 7.691406-7.726563 7.691406zm0 0" fill="#27bef4"/><path d="m157.574219 229.046875c-.011719 0-.023438 0-.035157 0h-.109374c-4.265626-.019531-7.710938-3.496094-7.691407-7.761719.019531-4.253906 3.476563-7.691406 7.726563-7.691406h.035156.109375c4.265625.019531 7.710937 3.496094 7.691406 7.761719-.019531 4.257812-3.476562 7.691406-7.726562 7.691406zm0 0" fill="#27bef4"/><path d="m164.875 381.996094h-125.148438c-4.265624 0-7.722656-3.460938-7.722656-7.726563s3.457032-7.726562 7.722656-7.726562h125.144532c4.269531 0 7.726562 3.460937 7.726562 7.726562.003906 4.265625-3.457031 7.726563-7.722656 7.726563zm0 0" fill="#dad0cd"/><path d="m319.433594 381.996094h-127.363282c-4.265624 0-7.726562-3.460938-7.726562-7.726563s3.460938-7.726562 7.726562-7.726562h127.363282c4.265625 0 7.722656 3.460937 7.722656 7.726562s-3.457031 7.726563-7.722656 7.726563zm0 0" fill="#dad0cd"/><path d="m179.578125 373.019531c-4.265625 0-7.722656-3.457031-7.722656-7.726562v-68.132813c0-4.265625 3.457031-7.726562 7.722656-7.726562 4.269531 0 7.726563 3.460937 7.726563 7.726562v68.132813c0 4.269531-3.457032 7.726562-7.726563 7.726562zm0 0" fill="#dad0cd"/><path d="m202.351562 374.269531c0 12.574219-10.195312 22.769531-22.773437 22.769531-12.574219 0-22.769531-10.195312-22.769531-22.769531s10.195312-22.769531 22.769531-22.769531c12.578125 0 22.773437 10.195312 22.773437 22.769531zm0 0" fill="#50758e"/><path d="m491.367188 406.183594h-222.867188c-11.394531 0-20.632812-9.238282-20.632812-20.632813v-222.863281c0-11.398438 9.238281-20.636719 20.632812-20.636719h222.863281c11.398438 0 20.636719 9.238281 20.636719 20.636719v222.863281c0 11.394531-9.238281 20.632813-20.632812 20.632813zm0 0" fill="#27bef4"/><path d="m512 162.691406v222.859375c0 11.402344-9.234375 20.632813-20.632812 20.632813h-26.828126c11.402344 0 20.636719-9.234375 20.636719-20.632813v-222.859375c0-11.402344-9.234375-20.636718-20.636719-20.636718h26.828126c11.398437 0 20.632812 9.234374 20.632812 20.636718zm0 0" fill="#209ced"/><path d="m317.253906 364.390625c-4.269531 0-7.726562-3.457031-7.726562-7.726563v-166.472656c0-4.269531 3.457031-7.726562 7.726562-7.726562 4.265625 0 7.726563 3.457031 7.726563 7.726562v166.472656c0 4.269532-3.460938 7.726563-7.726563 7.726563zm0 0" fill="#197ae5"/><path d="m336.726562 320.925781c0 10.753907-8.71875 19.472657-19.472656 19.472657s-19.472656-8.71875-19.472656-19.472657c0-10.753906 8.71875-19.472656 19.472656-19.472656s19.472656 8.71875 19.472656 19.472656zm0 0" fill="#fc6393"/><path d="m379.933594 364.390625c-4.269532 0-7.726563-3.457031-7.726563-7.726563v-166.472656c0-4.269531 3.457031-7.726562 7.726563-7.726562 4.265625 0 7.726562 3.457031 7.726562 7.726562v166.472656c0 4.269532-3.460937 7.726563-7.726562 7.726563zm0 0" fill="#197ae5"/><path d="m399.40625 227.8125c0 10.753906-8.71875 19.472656-19.472656 19.472656s-19.472656-8.71875-19.472656-19.472656c0-10.757812 8.71875-19.472656 19.472656-19.472656s19.472656 8.714844 19.472656 19.472656zm0 0" fill="#fc6393"/><path d="m442.613281 364.390625c-4.265625 0-7.726562-3.457031-7.726562-7.726563v-166.472656c0-4.269531 3.460937-7.726562 7.726562-7.726562s7.726563 3.457031 7.726563 7.726562v166.472656c0 4.269532-3.460938 7.726563-7.726563 7.726563zm0 0" fill="#197ae5"/><path d="m462.085938 297.355469c0 10.753906-8.71875 19.472656-19.472657 19.472656-10.753906 0-19.472656-8.71875-19.472656-19.472656 0-10.753907 8.71875-19.472657 19.472656-19.472657 10.753907 0 19.472657 8.71875 19.472657 19.472657zm0 0" fill="#fc6393"/><path d="m286.054688 184.042969c-.011719 0-.023438 0-.035157 0h-.117187c-4.265625-.019531-7.710938-3.492188-7.691406-7.761719.019531-4.253906 3.472656-7.691406 7.726562-7.691406h.035156.117188c4.265625.019531 7.710937 3.492187 7.691406 7.761718-.019531 4.253907-3.476562 7.691407-7.726562 7.691407zm0 0" fill="#fc6393"/><path d="m286.113281 204.433594h-.117187c-4.265625 0-7.726563-3.460938-7.726563-7.726563s3.460938-7.726562 7.726563-7.726562h.117187c4.265625 0 7.726563 3.460937 7.726563 7.726562s-3.460938 7.726563-7.726563 7.726563zm0 0" fill="#14f2d7"/></svg>